# xmcd
#
# Track frame offsets: 
#        150
#        18407
#        36162
#        52397
#        71790
#        85600
#        102117
#        118912
#        140382
#        154165
#        167287
#        185242
#
# Disc length: 2724 seconds
#
# Revision: 0
# Processed by: cddbd v1.5.2PL0 Copyright (c) Steve Scherf et al.
# Submitted via: ExactAudioCopy v0.99pb3
#
DISCID=a50aa20c
DTITLE=Craig Horton - In My Spirit
DYEAR=2001
DGENRE=Blues
TTITLE0=Chest Pain Blues
TTITLE1=3 Days And 3 Nights
TTITLE2=One More Time
TTITLE3=Is It True?
TTITLE4=Nightclub
TTITLE5=That's Her
TTITLE6=Ridin' In My Jaguar
TTITLE7=Spellbound
TTITLE8=Watch Yourself
TTITLE9=Cottonwood Tree
TTITLE10=Try Me Baby
TTITLE11=Midnight Shuffle
EXTD=
EXTT0=
EXTT1=
EXTT2=
EXTT3=
EXTT4=
EXTT5=
EXTT6=
EXTT7=
EXTT8=
EXTT9=
EXTT10=
EXTT11=
PLAYORDER=
